<svg width="25" height="26" viewBox="0 0 25 26" fill="none" xmlns="http://www.w3.org/2000/svg">
<path d="M22.775 12.8305C22.775 18.261 18.1723 22.6639 12.4962 22.6639C11.8288 22.6648 11.1632 22.603 10.5077 22.48C10.0358 22.3913 9.79984 22.347 9.63512 22.3722C9.47039 22.3973 9.23697 22.5214 8.77012 22.7697C7.44945 23.4721 5.90949 23.7201 4.42849 23.4447C4.99138 22.7523 5.37582 21.9215 5.54545 21.031C5.64824 20.4862 5.39355 19.9571 5.01209 19.5697C3.27954 17.8103 2.21741 15.4396 2.21741 12.8305C2.21741 7.40006 6.82002 2.99707 12.4962 2.99707C18.1723 2.99707 22.775 7.40006 22.775 12.8305Z" stroke="black" stroke-width="1.77701" stroke-linejoin="round"/>
<path d="M12.4915 13.2761H12.5008M16.5984 13.2761H16.6077M8.38464 13.2761H8.39386" stroke="black" stroke-width="1.77701" stroke-linecap="round" stroke-linejoin="round"/>
</svg>
